<?xml version="1.0" encoding="UTF-8"?>
<svg width="64px" height="62px" viewBox="0 0 64 62" version="1.1" xmlns="http://www.w3.org/2000/svg" xmlns:xlink="http://www.w3.org/1999/xlink">
    <!-- Generator: Sketch 49.3 (51167) - http://www.bohemiancoding.com/sketch -->
    <title>Sun</title>
    <desc>Created with Sketch.</desc>
    <defs></defs>
    <g id="Page-1" stroke="none" stroke-width="1" fill="none" fill-rule="evenodd">
        <g id="Artboard" transform="translate(-446.000000, -739.000000)" fill="#FBF177">
            <g id="Sun" transform="translate(446.000000, 739.000000)">
                <circle id="Oval" cx="32" cy="33" r="13"></circle>
                <path d="M32,0 L37.3998768,16.3121393 L26.6001232,16.3121393 L32,0 Z M57.5898357,12.2358189 L48.311175,26.6978732 L41.5146699,18.3048884 L57.5898357,12.2358189 Z M63.9531072,39.9036838 L46.844339,41.4957291 L49.2737549,30.9727726 L63.9531072,39.9036838 Z M46.259095,62 L34.2549467,49.7058965 L43.9617009,44.9715961 L46.259095,62 Z M17.740905,62 L20.0382991,44.9715961 L29.7450533,49.7058965 L17.740905,62 Z M0.0468928242,39.9036838 L14.7262451,30.9727726 L17.155661,41.4957291 L0.0468928242,39.9036838 Z M6.41016433,12.2358189 L22.4853301,18.3048884 L15.688825,26.6978732 L6.41016433,12.2358189 Z" id="Triangle"></path>
            </g>
        </g>
    </g>
</svg>