<?xml version="1.0" encoding="UTF-8"?>
<svg width="50px" height="50px" viewBox="0 0 50 50" version="1.1" xmlns="http://www.w3.org/2000/svg" xmlns:xlink="http://www.w3.org/1999/xlink">
    <!-- Generator: Sketch 49.1 (51147) - http://www.bohemiancoding.com/sketch -->
    <title>Artboard</title>
    <desc>Created with Sketch.</desc>
    <defs></defs>
    <g id="Page-1" stroke="none" stroke-width="1" fill="none" fill-rule="evenodd">
        <g id="Artboard" transform="translate(-918.000000, -596.000000)" fill="#F8E71C" fill-rule="nonzero">
            <path d="M987.922886,717.170322 C984.395425,720.968669 980.383057,724.313708 975.983743,727.107865 L971,742 L916,742 L911.016257,727.107865 C906.628426,724.321001 902.625524,720.986127 899.104745,717.200056 L908.775911,710.173543 C911.319884,712.776602 914.154851,715.090764 917.227774,717.062654 L921.181818,729 L964.818182,729 L968.772226,717.062654 C971.704078,715.181289 974.41932,712.988357 976.87189,710.530213 L987.922886,717.170322 Z M996.714954,704.953628 L985.721692,698.34821 C989.095747,691.73931 991,684.24562 991,676.304348 C991,675.94907 990.996189,675.594688 990.988605,675.241241 L1003.91092,672.962688 C1003.97005,674.054608 1004,675.154256 1004,676.26087 C1004,686.648587 1001.36124,696.422423 996.714954,704.953628 Z M890.329314,705.03476 C885.655528,696.484412 883,686.681531 883,676.26087 C883,675.523134 883.013309,674.788495 883.039702,674.057178 L895.000192,676.166135 C895.000064,676.212191 895,676.258262 895,676.304348 C895,684.087255 896.829061,691.440253 900.078208,697.951774 L890.329314,705.03476 Z M1001.23667,658.202832 L988.36263,660.472872 C985.441707,651.995753 980.240605,644.590945 973.497826,639.00163 L980.343957,628.459514 C990.081129,635.916575 997.475141,646.25909 1001.23667,658.202832 Z M967.380196,620.876152 L960.582619,631.343502 C955.137779,629.185403 949.20645,628 943,628 C936.889773,628 931.046202,629.148932 925.670975,631.243829 L919.283344,621.021482 C926.69853,617.791797 934.889186,616 943.5,616 C951.980781,616 960.053999,617.73809 967.380196,620.876152 Z M885.444153,659.249748 C889.06252,646.978592 896.495792,636.333028 906.377543,628.674081 L912.719175,638.822814 C905.638756,644.622807 900.233174,652.413949 897.345115,661.348209 L885.444153,659.249748 Z" id="Combined-Shape"></path>
        </g>
    </g>
</svg>